<svg xmlns="http://www.w3.org/2000/svg" viewBox="0 0 444.14 595.08"><defs><style>.cls-1{fill:#d2cecd;}.cls-2{fill:#f3eae9;}.cls-3{fill:#f7f0f0;}.cls-4{fill:#fff2ea;}.cls-5{fill:#f26768;}.cls-6{fill:#f9b7b3;}.cls-7{fill:#231f20;}</style></defs><g id="Layer_1" data-name="Layer 1"><path class="cls-1" d="M378.69,543.7c14.32-1.81,19.88-17.23,10-27.77l-10-10.63-10-10.64c-9.86-10.53-27.76-8.27-32.21,4.07l-4.49,12.47-4.5,12.46c-4.45,12.35,7.88,25.51,22.2,23.7l14.46-1.83Z"/><path class="cls-1" d="M55.79,543.7c-14.31-1.81-19.88-17.23-10-27.77l10-10.63,10-10.64c9.87-10.53,27.76-8.27,32.21,4.07l4.5,12.47,4.49,12.46c4.46,12.35-7.88,25.51-22.19,23.7l-14.46-1.83Z"/><path class="cls-1" d="M359.42,413.65l.27-21c1.08-61.47-55.61-121.45-110.27-122.13l-57-.7c-54.66-.68-107.95,63.81-109,125.29l-.29,16.81C49.58,418,24.29,443.18,24.29,473.06v7.77c0,34.4,33.5,62.54,74.45,62.54l81.44-1,77.64,1c2.87,0,5.71-.07,8.52-.31l70,.32c40.95,0,74.45-28.14,74.45-62.54v-7.77C410.75,445.44,389.13,421.87,359.42,413.65Z"/><path class="cls-2" d="M255.7,291.91l-44,15.87C169.61,323,106.51,287.91,89.07,239.6h0a128.24,128.24,0,0,1-7.18-53.95c3.81-46.46,6.68-89.17,42-101.92L176,64.93c34.78-12.55,67.87,20.3,97.84,51.65a128,128,0,0,1,27.87,45l.41,1.13C319.55,211,297.83,276.71,255.7,291.91Z"/><rect class="cls-2" x="103.16" y="229.88" width="237.61" height="312.99" rx="109.76"/><path class="cls-3" d="M311.17,177.5c-12.46-12.1-33-6.88-46.35,1.77-30.83,12.64-45-11.71-90,10.45-24.44,7.2-31.2,36-55.05,42.43-48.62,7.31-41.34,51-9.75,76.09,20.58,27.9,46.23,13.06,87.34,9.77,30.95-2.69,59.32-17.25,82.5-37.48,5.38-2.18,44.33-30.34,42.69-40.85C322.15,218,327.38,195.51,311.17,177.5Z"/><path class="cls-1" d="M225.69,543.37h-9c-37.12,0-86.86-1.63-86.86-38.75l19.37-53.37a67.69,67.69,0,0,1,67.49-67.49h9a67.7,67.7,0,0,1,67.5,67.49l40.95,57.09C334.14,545.46,262.81,543.37,225.69,543.37Z"/><rect class="cls-2" x="103.21" y="391.4" width="67.47" height="167.01" rx="12.97"/><rect class="cls-2" x="273.47" y="391.4" width="67.7" height="167.01" rx="12.99"/><path class="cls-2" d="M121.6,570.22c-14.85,2.71-25.42-11-19-24.66L109,531.75l6.45-13.81c6.39-13.67,24.95-17.06,33.4-6.1l8.55,11.07L166,534c8.46,11,.47,28-14.37,30.76l-15,2.74Z"/><path class="cls-2" d="M323.27,571.46c15.44,2.87,26.38-11.31,19.69-25.53l-6.75-14.35-6.76-14.36c-6.69-14.21-26-17.79-34.75-6.45l-8.84,11.46L277,533.69c-8.76,11.35-.39,29.11,15.05,32l15.6,2.89Z"/><path class="cls-4" d="M199.07,185.29a40.57,40.57,0,0,0,.68,10.94,1,1,0,0,0,1.23.7,1,1,0,0,0,.7-1.23,38.68,38.68,0,0,1-.61-10.41,1,1,0,0,0-2,0Z"/><g id="Layer_2" data-name="Layer 2"><path d="M143.15,185.38a5.68,5.68,0,0,1-3.32,7.42,5.86,5.86,0,1,1-4-11A5.67,5.67,0,0,1,143.15,185.38Z"/><path d="M229,154.39a5.86,5.86,0,0,1-3.52,7.49,5.86,5.86,0,0,1-4-11A5.85,5.85,0,0,1,229,154.39Z"/><path d="M204.65,202.27a3.89,3.89,0,0,1,3.53.31,12.34,12.34,0,0,0-.32-6.07c-2.09-5.8-9.57-3.8-18.19-.69s-15.11,6.15-13,12a12.18,12.18,0,0,0,3.51,4.77,4,4,0,0,1,2.29-1.95c4-1.46,6.68,3.08,5.23,6.06a15,15,0,0,0,17.3-6.18C201.57,209.47,200.4,203.8,204.65,202.27Z"/><ellipse class="cls-5" cx="121.54" cy="253.06" rx="18.36" ry="16.1" transform="translate(-78.68 56.28) rotate(-19.84)"/><ellipse class="cls-5" cx="279.15" cy="196.19" rx="18.36" ry="16.1" transform="translate(-50.02 106.4) rotate(-19.84)"/><circle class="cls-2" cx="83.1" cy="112.52" r="35.35"/><circle class="cls-2" cx="221.08" cy="62.73" r="35.35"/><circle class="cls-6" cx="83.1" cy="112.52" r="18.41"/><circle class="cls-6" cx="221.08" cy="62.73" r="18.41"/><path class="cls-7" d="M230.17,211c3.58,10,.85,20.68-6.35,28.27-3.54,3.73,2.92,8.45,6.42,4.76a35.22,35.22,0,0,0,7.25-36.27C235.75,202.89,228.44,206.15,230.17,211Z"/></g></g></svg>