<svg xmlns="http://www.w3.org/2000/svg" viewBox="0 0 444.14 595.08"><defs><style>.cls-1{fill:#d2cecd;}.cls-2{fill:#f3eae9;}.cls-3{fill:#f7f0f0;}.cls-4{fill:#fff2ea;}.cls-5{fill:#f26768;}.cls-6{fill:#f9b7b3;}.cls-7{fill:#231f20;}</style></defs><g id="Layer_1" data-name="Layer 1"><path class="cls-1" d="M378.69,543.7c14.32-1.81,19.88-17.23,10-27.77l-10-10.63-10-10.64c-9.86-10.53-27.76-8.27-32.21,4.07l-4.49,12.47-4.5,12.46c-4.45,12.35,7.88,25.51,22.2,23.7l14.46-1.83Z"/><path class="cls-1" d="M55.79,543.7c-14.31-1.81-19.88-17.23-10-27.77l10-10.63,10-10.64c9.87-10.53,27.76-8.27,32.21,4.07l4.5,12.47,4.49,12.46c4.46,12.35-7.88,25.51-22.19,23.7l-14.46-1.83Z"/><path class="cls-1" d="M359.42,413.65l.27-21c1.08-61.47-55.61-121.45-110.27-122.13l-57-.7c-54.66-.68-107.95,63.81-109,125.29l-.29,16.81C49.58,418,24.29,443.18,24.29,473.06v7.77c0,34.4,33.5,62.54,74.45,62.54l81.44-1,77.64,1c2.87,0,5.71-.07,8.52-.31l70,.32c40.95,0,74.45-28.14,74.45-62.54v-7.77C410.75,445.44,389.13,421.87,359.42,413.65Z"/><path class="cls-2" d="M242.15,310.12l-45.89-8.89c-44-8.52-80.2-71-70.43-121.39h0a128,128,0,0,1,21.47-50c27.06-38,51.4-73.17,88.28-66L290,74.34c36.3,7,47.89,52.2,57.58,94.47a127.82,127.82,0,0,1,.88,52.94l-.23,1.18C338.41,273.35,286.12,318.64,242.15,310.12Z"/><rect class="cls-2" x="103.16" y="229.88" width="237.61" height="312.99" rx="109.76"/><path class="cls-3" d="M348.39,240.25c-4.5-16.77-24.8-22.79-40.71-22.21-33-4.94-32.67-33.12-82.7-37.15-24.68-6.33-45.25,15-69,8.25-45.5-18.62-61.64,22.64-47.35,60.36,3.39,34.5,33,34.9,70,53.12,28,13.55,59.78,15.57,90.05,10.07,5.74.88,53.61-3.36,57.59-13.23C337.11,280.62,353.08,264,348.39,240.25Z"/><path class="cls-1" d="M225.69,543.37h-9c-37.12,0-86.86-1.63-86.86-38.75l19.37-53.37a67.69,67.69,0,0,1,67.49-67.49h9a67.7,67.7,0,0,1,67.5,67.49l40.95,57.09C334.14,545.46,262.81,543.37,225.69,543.37Z"/><rect class="cls-2" x="103.21" y="391.4" width="67.47" height="167.01" rx="12.97"/><rect class="cls-2" x="273.47" y="391.4" width="67.7" height="167.01" rx="12.99"/><path class="cls-2" d="M121.6,570.22c-14.85,2.71-25.42-11-19-24.66L109,531.75l6.45-13.81c6.39-13.67,24.95-17.06,33.4-6.1l8.55,11.07L166,534c8.46,11,.47,28-14.37,30.76l-15,2.74Z"/><path class="cls-2" d="M323.27,571.46c15.44,2.87,26.38-11.31,19.69-25.53l-6.75-14.35-6.76-14.36c-6.69-14.21-26-17.79-34.75-6.45l-8.84,11.46L277,533.69c-8.76,11.35-.39,29.11,15.05,32l15.6,2.89Z"/><path class="cls-4" d="M199.07,185.29a40.57,40.57,0,0,0,.68,10.94,1,1,0,0,0,1.23.7,1,1,0,0,0,.7-1.23,38.68,38.68,0,0,1-.61-10.41,1,1,0,0,0-2,0Z"/><ellipse class="cls-5" cx="237.49" cy="253.07" rx="7.1" ry="9.78" transform="translate(-84.2 122.84) rotate(-24.78)"/><g id="Layer_2" data-name="Layer 2"><path d="M200,161a5.67,5.67,0,0,1-6.65,4.67,5.85,5.85,0,0,1,2.23-11.49A5.66,5.66,0,0,1,200,161Z"/><path d="M289.68,178.33a5.86,5.86,0,0,1-6.86,4.64,5.87,5.87,0,0,1,2.22-11.5A5.86,5.86,0,0,1,289.68,178.33Z"/><path d="M244.22,207a3.91,3.91,0,0,1,2.87,2.08,12.29,12.29,0,0,0,2.83-5.38c1.18-6-6.27-8.16-15.26-9.9s-16.14-2.46-17.31,3.59a12.21,12.21,0,0,0,.57,5.89,4,4,0,0,1,3-.5c4.22.81,4.16,6.06,1.39,7.89a15,15,0,0,0,18,3.55C237.88,211.58,239.78,206.11,244.22,207Z"/><ellipse class="cls-5" cx="146.82" cy="208.03" rx="16.1" ry="18.36" transform="translate(-85.35 312.59) rotate(-79.03)"/><ellipse class="cls-5" cx="311.32" cy="239.91" rx="16.1" ry="18.36" transform="translate(16.57 499.91) rotate(-79.03)"/><circle class="cls-2" cx="185.79" cy="67.63" r="35.35"/><circle class="cls-2" cx="329.8" cy="95.54" r="35.35"/><circle class="cls-6" cx="185.79" cy="67.63" r="18.41"/><circle class="cls-6" cx="329.8" cy="95.54" r="18.41"/><path class="cls-7" d="M238.22,239.19c-10,3.41-20.7.5-28.16-6.83-3.67-3.6-8.5,2.79-4.88,6.35a35.26,35.26,0,0,0,36.15,7.85C246.21,244.9,243.07,237.54,238.22,239.19Z"/></g></g></svg>