<svg xmlns="http://www.w3.org/2000/svg" viewBox="0 0 509.1 552.52"><defs><style>.cls-1,.cls-2{fill:#b7bfc4;}.cls-1{stroke:#b7bfc4;stroke-miterlimit:10;stroke-width:8px;}.cls-3{fill:#f7a2a0;}.cls-4{fill:#9fa6a9;}.cls-5{fill:#dcdbdb;}</style></defs><g id="Layer_1" data-name="Layer 1"><path class="cls-1" d="M444.71,393.71A98,98,0,0,0,398.92,397c-15.41,4.87-29.65,12.11-44.43,18.42-7.9,3.37-14.33,5.79-22.84,7.53a51.6,51.6,0,0,1-10.32,1.29c-1.74,0-3.47,0-5.19-.14-.75,0-3.45-.5-3.05-.38a65.06,65.06,0,0,1-8.31-2.38l-.47-.2-1.33-.68a42.91,42.91,0,0,1-4.51-2.73c-.32-.22-.64-.46-1-.69-.12-.11-.27-.26-.47-.47-1-1.05-2-2.21-3-3.23l0,0c-.32-.51-.65-1-.94-1.56s-.57-1.12-.86-1.68a2.77,2.77,0,0,0-.19-.34c0-.1-.06-.21-.1-.33-2.29-7.19-9.66-13-18.11-10.84-7.47,1.93-14.22,9.61-11.78,17.3,9.27,29.12,41.56,40.6,71.57,36,31.77-4.83,57.68-27,88.81-30.6-.17,0,2.35-.16,2.76-.17,1.5-.05,3-.06,4.51,0,1.75.05,3.5.16,5.24.33l2.08.23c.23,0,.47.07.7.12a79.26,79.26,0,0,1,9.39,2.4c1.41.46,2.8,1,4.19,1.51l.25.09c.71.33,1.43.66,2.13,1a68.94,68.94,0,0,1,8.21,4.86l1.69,1.21a46,46,0,0,1,3.77,3.61c.56.61,1.13,1.25,1.65,1.91l.2.34c.3.51,1.15,2.16,1.47,2.71a15.42,15.42,0,0,0,.49,2.17c0,.36,0,.81,0,.83,0,.25,0,.44,0,.62a.05.05,0,0,0,0,0c-.17.36-.78,1.81-1,2.41-.46.63-1.18,1.71-1.33,2,0,.08-.09.16-.12.22-.41.42-.84.83-1.27,1.22a39.69,39.69,0,0,1-3.43,2.75c-.59.33-1.17.66-1.77,1-1.22.65-2.48,1.21-3.76,1.76l-.5.23-.32.1c-.86.28-1.74.52-2.62.76-2,.55-4.12,1-6.2,1.4-15.1,2.9-30.24,3.38-44.49,9.7-15.56,6.9-27.66,20.82-28.17,37.45-.55,18,11.89,33.9,30.05,38.82,7.64,2.08,17-2.06,19.19-9.69a14.3,14.3,0,0,0-9.93-18,23.2,23.2,0,0,0-2.35-.72c-.85-.49-1.66-1-2.52-1.49-.36-.33-.72-.66-1.05-1s-.82-.9-1.22-1.36c0-.08-.08-.18-.14-.3s-.55-1.07-.8-1.5-.24-.65-.25-.69c-.15-.61-.45-3.23-.47-2.29a21.61,21.61,0,0,1,.16-3c-.05.74.59-1.51.67-2a3.72,3.72,0,0,1,.23-.48c.35-.55.7-1.1,1.08-1.63.23-.33.48-.65.73-1h0a29.67,29.67,0,0,0,3-2.56l.2-.22c.53-.31,1.06-.62,1.59-.91,1.2-.65,2.44-1.26,3.69-1.81.85-.38,1.71-.72,2.57-1.06l.84-.28,2.77-.76c1.56-.4,3.13-.76,4.71-1.07,15.42-3,31.39-3.14,45.77-10.15,13.74-6.71,24.35-18.46,26.69-33.05C506,418.63,470.74,398,444.71,393.71Z"/><path class="cls-2" d="M484.08,411.33c-5.63-6.24-17.65-4.63-22.57,1.57-5.94,7.48-4.45,15.89,1.57,22.58-2.45-2.72.18,1.41.49,1.36.4,1.35.93,3.25.92,2.6.1.87.16,1.75.18,2.63-.14-1.13-.76,2.29-.52,2.44-.65,1.24-1.6,3-1.33,2.74-.79,1-1.64,2-2.52,3-.37.39-3.87,3.57-3.17,3-1.47,1.21-3,2.39-4.46,3.56-6.57,5.14-9.84,14.84-4.47,22.18,4.78,6.55,15.13,10,22.18,4.48,11.29-8.83,21.87-18.45,25.29-33S493.74,422,484.08,411.33Z"/><path class="cls-3" d="M296.43,56.17l-7.67-22-1.54-4.43c-.38-3.17-.71-6.35-.87-9.53.3-1.39.61-2.77.86-4.14.06-.35.14-.71.21-1.07l.06-.14a6.65,6.65,0,0,1,1.35,1.84,66.29,66.29,0,0,1,2.64,6.63A119.38,119.38,0,0,1,298.65,51a66.44,66.44,0,0,1,.44,9.7,11.23,11.23,0,0,1-.39,5.1A45.78,45.78,0,0,1,296,77c-.51,1.29-2.34,1.14-3.41.18a3.64,3.64,0,0,1-1.21-2.92,4.18,4.18,0,0,1-.41-1c-.58-2.33-1.16-4.68-1.8-7A7.53,7.53,0,0,0,296.43,56.17Z"/><path class="cls-2" d="M235.27,53.53a2.53,2.53,0,0,1-.85-3.44l2.08-2.92A7.5,7.5,0,0,1,237.8,45l1.39-1.62,14.35-20.15C259,15.55,265.18,6.62,275.2,5A16.56,16.56,0,0,1,287,7.24a2.33,2.33,0,0,1,1.55.33,2.56,2.56,0,0,1,.85,3.44c-.44.76-.86,1.52-1.24,2.31-.19.37-.37.75-.54,1.13,0,.08-.11.24-.13.3a.3.3,0,0,0,0,.1l-.06.14c-.07.36-.15.72-.21,1.07-.25,1.37-.56,2.75-.86,4.14.16,3.18.49,6.36.87,9.53l1.54,4.43,7.67,22a7.58,7.58,0,0,1-8.53,9.89L265,61.69l-22.9-4.36a7.45,7.45,0,0,1-5-3.53A2.34,2.34,0,0,1,235.27,53.53Z"/><path class="cls-3" d="M93.56,96,84.69,74.47l-1.78-4.34c-1.81-2.62-3.68-5.22-5.67-7.71-1.15-.84-2.29-1.67-3.39-2.53L73,59.23l-.13-.07a6.81,6.81,0,0,0,.2,2.28,65.42,65.42,0,0,0,2.43,6.71,119.59,119.59,0,0,0,13,25.44,65.54,65.54,0,0,0,6.11,7.55,11.26,11.26,0,0,0,3.67,3.56,45.91,45.91,0,0,0,9.48,6.57c1.23.63,2.5-.7,2.66-2.13a3.59,3.59,0,0,0-1-3,4.41,4.41,0,0,0-.37-1c-1.11-2.13-2.23-4.27-3.3-6.45A7.54,7.54,0,0,1,93.56,96Z"/><path class="cls-2" d="M137.57,53.47a2.52,2.52,0,0,0-1.64-3.13l-3.49-.8a7.63,7.63,0,0,0-2.42-.77l-2.11-.28L103.8,42.92c-9.17-2.12-19.72-4.71-28.28.75a16.66,16.66,0,0,0-7.39,9.51,2.27,2.27,0,0,0-.94,1.27,2.57,2.57,0,0,0,1.65,3.14q1.25.4,2.46.9l1.15.49.3.14.1,0,.13.07.87.66c1.1.86,2.24,1.69,3.39,2.53,2,2.49,3.86,5.09,5.67,7.71l1.78,4.34L93.56,96a7.54,7.54,0,0,0,12.1,2.65,9.15,9.15,0,0,0,.84-.91l14.24-18.46L135,60.85a7.46,7.46,0,0,0,1.44-6A2.32,2.32,0,0,0,137.57,53.47Z"/><path class="cls-4" d="M299.44,466.5l6-7.81c5.94-7.73,29.81-9.15,43-2.55l13.3,6.66L375,469.47c13.16,6.59,5.74,16.26-13.36,17.39L342.34,488l-19.29,1.14c-19.1,1.14-35.55-7.11-29.61-14.84Z"/><path class="cls-4" d="M313.91,359.54l.2-21c.8-61.48-40.8-121.45-80.89-122.13l-41.85-.7c-40.1-.68-79.18,63.81-80,125.28l-.22,16.82C86.62,363.92,68.07,389.07,68.07,419v7.77c0,34.4,24.57,62.54,54.61,62.54l59.74-1,57,1a46.32,46.32,0,0,0,6.25-.31l51.32.32c30,0,54.62-28.14,54.62-62.54V419C351.57,391.33,335.71,367.76,313.91,359.54Z"/><path class="cls-2" d="M244.23,232.73l-46.14,7.41c-44.22,7.1-99.1-35.35-106.68-82.53L87.18,131.3c-7.58-47.18,22.4-91.59,66.62-98.7l62.82-10.09c44.22-7.11,86.6,25.68,94.18,72.87l4.23,26.3C322.61,168.86,288.45,225.62,244.23,232.73Z"/><rect class="cls-2" x="91.01" y="177.83" width="237.61" height="312.99" rx="109.76"/><path class="cls-5" d="M225.89,280.55l-4.51.73C189.75,286.36,118.19,250.91,113,218.7h0c-5.18-32.21,16.47-62.72,48.11-67.81l79-12.69c31.63-5.08,61.75,17.11,66.93,49.32h0C312.21,219.73,257.52,275.47,225.89,280.55Z"/><path class="cls-5" d="M279.62,400c0-37.58-31.42-68.32-69.83-68.32h-9.32c-38.41,0-69.84,30.74-69.84,68.32l-20,54c0,37.58,51.46,39.23,89.87,39.23h9.32c38.41,0,112.2,2.11,112.2-35.46Z"/><path class="cls-2" d="M315.44,136.15c-9.12-14.64-29.38-14.3-43.67-9-31.43,5.17-39.62-21.77-86.3-10.62-24.33,1.36-36.64,27.82-60.25,28.53-46.94-4.11-49.24,40-24.94,71.71,24.93,43.93,120.87,36.09,164.44,12.27C305,222.49,334.6,176.19,315.44,136.15Z"/><path class="cls-4" d="M110.45,464.21l-6-7.81c-5.93-7.73-29.81-9.14-43-2.55l-13.29,6.67L34.9,467.18c-13.16,6.6-5.74,16.26,13.36,17.4l19.29,1.14,19.29,1.15c19.09,1.13,35.55-7.12,29.61-14.85Z"/><rect class="cls-2" x="91.06" y="339.35" width="57.77" height="167.01" rx="12"/><rect class="cls-2" x="271.26" y="339.35" width="57.77" height="167.01" rx="12"/><path class="cls-2" d="M336.17,522.34c17.17,2.53,22.2-8.47,9-19.8L331.92,491.1l-13.28-11.44C305.48,468.33,284,465.16,280,474l-4.06,8.89-4.06,8.88c-4,8.8,12.42,23,29.6,25.49l17.35,2.56Z"/><path class="cls-2" d="M83.93,522.34c-17.18,2.53-22.21-8.47-9.05-19.8L88.17,491.1l13.28-11.44c13.16-11.33,34.63-14.5,38.65-5.7l4.06,8.89,4.06,8.88c4,8.8-12.42,23-29.6,25.49l-17.35,2.56Z"/><g id="Layer_2" data-name="Layer 2"><circle cx="156.21" cy="122.93" r="5.86"/><circle cx="234.58" cy="110.34" r="5.86"/><path d="M220.71,153c.59,3.63-4.26,14.49-12.19,15.76s-15.94-7.51-16.52-11.15,6.64-1.8,14.57-3.07S220.13,149.38,220.71,153Z"/><ellipse class="cls-3" cx="128.93" cy="161.21" rx="21.4" ry="8.46" transform="translate(-23.94 22.49) rotate(-9.13)"/><ellipse class="cls-3" cx="277.69" cy="139.87" rx="21.4" ry="8.46" transform="translate(-18.67 45.82) rotate(-9.13)"/><path d="M206.58,162.73c-4.11,9.73-14,25.49-26.67,17.71-3.29-2-6.47,3.07-3.17,5.09,6.48,4,14.51,3.37,20.88-.61,7.43-4.65,11.42-12.69,14.72-20.49C213.84,160.88,208.07,159.2,206.58,162.73Z"/><path d="M210.06,162.17c7,8,21.28,19.82,30.88,8.46,2.5-2.95,7.11.89,4.61,3.85-4.91,5.8-12.72,7.74-20,6-8.51-2.08-14.82-8.47-20.4-14.85C202.6,162.69,207.54,159.28,210.06,162.17Z"/></g></g></svg>