<svg xmlns="http://www.w3.org/2000/svg" viewBox="0 0 450.22 530.02"><defs><style>.cls-1{fill:#f7a2a0;}.cls-2{fill:#b7bfc4;}.cls-3{fill:#9fa6a9;}.cls-4{fill:#dcdbdb;}</style></defs><g id="Layer_1" data-name="Layer 1"><path class="cls-1" d="M397.41,89.3l2.49-23.59.51-4.74c1.09-3.18,2.25-6.37,3.57-9.5,1-1.25,1.92-2.51,2.82-3.76l.71-1,.12-.12a5.35,5.35,0,0,1,.52,2.19,60.31,60.31,0,0,1-.42,7.2,116.12,116.12,0,0,1-5.62,28.89,70.87,70.87,0,0,1-4.1,9.53,12.76,12.76,0,0,1-2.78,4.82,56.7,56.7,0,0,1-8,10.07,2.3,2.3,0,0,1-3.55-.83,3.32,3.32,0,0,1,.13-3.18,3.81,3.81,0,0,1,.06-1.1c.49-2.43,1-4.88,1.44-7.33C390.44,98.51,396.83,94.74,397.41,89.3Z"/><path class="cls-2" d="M394.06,110.38c-.57,2.6-3.83,3.25-5.87,1.17L362.9,85.82,337.62,60.09c-2-2.08-1.34-5.32,1.27-5.84l32.31-6.46,32.3-6.46A4.05,4.05,0,0,1,408.09,46l-7,32.18Z"/><path class="cls-2" d="M25.32,363c4.47-1,9.06-2.25,13.67-2.58a23,23,0,0,1,8.67,1.06c3.13,1.31,1.37.64.69.35,0,0,.83.63,1.22.88.33.44,1,1.21,1.39,1.64-.2.31-.78,1.76-1.25,2.51l-.06.1c-.4.41-.79.84-1.19,1.25-2.45,2.47-5.11,4.71-7.66,7.07-6.13,5.63-11.47,11.85-14.66,19.81-7.38,18.4,3.26,40.14,19.06,50.6,17.55,11.62,38.29,9.52,57.22,5.72,24-4.81,47.91-9.78,71.86-14.68,19.8-4,12.79-36.41-7.09-32.34L103.93,417.3c-8.22,1.68-18.55,4.15-25.77,4.37a55.7,55.7,0,0,1-6.46-.2c-.52-.05-3.68-.52-3.35-.4a28.23,28.23,0,0,1-5.57-2c-1.78-.84,0-.08.25.09-1.16-.77-2.29-1.54-3.37-2.42l0,0c-.73-.78-1.39-1.59-2.09-2.39-.5-.57-.71-.78-.79-.86s.06-.14-.44-1.13c-.22-.44-.39-.76-.51-1a15.14,15.14,0,0,1-.38-1.72c0-.12,0-.27,0-.46s0-.27,0-.37.3-.87.49-1.36a3.85,3.85,0,0,1,.21-.35,17.6,17.6,0,0,0,1.13-1.68l.17-.28c2.12-2.33,4.46-4.43,6.79-6.54,13.17-11.89,24.24-27.81,15.49-47.19a41.26,41.26,0,0,0-25-21.72c-12.22-3.71-24.56-1.78-36.5,1A16.07,16.07,0,0,0,6.35,349.87C8.23,358.42,17,364.9,25.32,363Z"/><path class="cls-3" d="M345.19,466.5l6-7.81c5.94-7.73,29.81-9.15,43-2.55l13.3,6.66,13.29,6.67c13.16,6.59,5.74,16.26-13.36,17.39L388.1,488l-19.29,1.14c-19.1,1.14-35.55-7.11-29.61-14.84Z"/><path class="cls-3" d="M359.67,359.54l.2-21c.79-61.48-40.8-121.45-80.89-122.13l-41.85-.7c-40.1-.68-79.18,63.81-80,125.28l-.21,16.82c-24.56,6.09-43.11,31.24-43.11,61.12v7.77c0,34.4,24.57,62.54,54.61,62.54l59.74-1,57,1a46.32,46.32,0,0,0,6.25-.31l51.32.32c30,0,54.61-28.14,54.61-62.54V419C397.32,391.33,381.47,367.76,359.67,359.54Z"/><path class="cls-2" d="M283.09,251.19l-45.75-9.57c-43.83-9.17-79.92-68.43-70.14-115.21l5.46-26.07C182.44,53.56,226.31,22.8,270.15,32l62.28,13c43.84,9.16,71.7,54.94,61.92,101.71l-5.45,26.07C379.12,219.55,326.93,260.36,283.09,251.19Z"/><rect class="cls-2" x="136.77" y="177.83" width="237.61" height="312.99" rx="109.76"/><path class="cls-4" d="M248.86,289.3l-4.46-.93c-31.36-6.56-85.52-65.25-78.85-97.18h0c6.67-31.93,37.8-52.69,69.16-46.13L313,161.44c31.36,6.55,51.56,38.05,44.88,70h0C351.23,263.35,280.23,295.86,248.86,289.3Z"/><path class="cls-4" d="M268.58,491.53c.1-3,.37-5.9.74-8.91l-.27,1.94.36-2.67c.27-2.15.58-4.35.89-6.63q-.44,3.32-.89,6.63l-.09.73c3.26-23.59,8.74-46.42,14.09-69.61,4.77-20.7,7.54-42,15.32-61.88.47-1.21,1-2.38,1.48-3.51a70.38,70.38,0,0,0-44.66-15.91h-9.32c-38.41,0-71.33,30-71.33,67.54l5.51,47.14.12.31.29.58c.7,1.44,1.35,2.89,2.06,4.32q2.3,4.62,4.92,9t5.49,8.54c.08.1.86,1.27,1.57,2.27l.21.27c.47.6,1,1.19,1.43,1.77a73.83,73.83,0,0,0,6.59,7.21c.21.2,1.14,1,1.86,1.59,1,.66,2.63,1.87,2.91,2a81.44,81.44,0,0,0,8.06,4.49c.31.15,4,2.12,4.23,1.95q-3.9-1.63-.66-.33l1.45.55c1.9.71,3.82,1.37,5.74,2,6.68.23,13.29.28,19.55.28h9.32l12.05,0C267.91,492.7,268.24,492.11,268.58,491.53Z"/><path class="cls-2" d="M384.11,186.44c-3.29-16.93-22.32-23.85-37.57-24C315.33,156,317.31,128,269.73,121.68c-23.21-7.42-44.17,12.9-66.47,5.12-42.37-20.62-60.29,19.8-48.91,58.06,1.15,34.55,29.45,36.28,63.72,56.12,25.9,14.77,56.2,18.22,85.47,14.1,5.43,1.13,51.45-.94,55.85-10.6C370.88,226.18,387.16,210.36,384.11,186.44Z"/><path class="cls-3" d="M169.36,473.37l-6.49-8.28-6.48-8.28c-6.42-8.2-32.23-9.7-46.45-2.7l-14.38,7.06-14.37,7.07c-14.22,7-6.2,17.24,14.45,18.44l20.85,1.22,20.85,1.21a63.57,63.57,0,0,0,15.9-1,36.74,36.74,0,0,0,12-.32,3.33,3.33,0,0,0,2-5.24C170.69,479.79,171.84,476.54,169.36,473.37Z"/><ellipse class="cls-1" cx="270.14" cy="190.62" rx="7.3" ry="9.66"/><g id="Layer_2" data-name="Layer 2"><circle cx="240.12" cy="117.19" r="5.86"/><circle cx="317.81" cy="133.43" r="5.86"/><path d="M289.61,168.34c-.75,3.6-9.16,12-17,10.36s-12.2-12.71-11.45-16.32,6.85.7,14.71,2.34S290.37,164.73,289.61,168.34Z"/><ellipse class="cls-1" cx="200.97" cy="143.19" rx="8.46" ry="21.4" transform="translate(19.67 310.59) rotate(-78.19)"/><ellipse class="cls-1" cx="347.52" cy="176.43" rx="8.46" ry="21.4" transform="translate(103.7 480.48) rotate(-78.19)"/><path d="M269.23,177.61c-7.59,7.35-22.85,18-31.48,5.86-2.23-3.14-7.15.3-4.91,3.45,4.41,6.2,12,8.78,19.46,7.61,8.66-1.37,15.47-7.21,21.56-13.1C276.63,178.75,272,175,269.23,177.61Z"/><path d="M274.65,177.92c3.29,10,11.81,26.57,25.1,19.87,3.45-1.74,6.19,3.6,2.73,5.34-6.79,3.42-14.73,2.15-20.75-2.35-7-5.25-10.32-13.59-13-21.65C267.57,175.47,273.45,174.28,274.65,177.92Z"/></g><path class="cls-1" d="M189.3,77a24.77,24.77,0,0,1,3.06-3A7,7,0,0,1,190,70.27L184.74,43l-1.05-5.47c-2.29-3.68-4.71-7.35-7.48-11-2-1.45-4-2.9-5.89-4.35l-1.49-1.12-.27-.14a4.37,4.37,0,0,0-1.08,2.52c-.21,2.7.48,5.6.88,8.32,1.67,11.33,5,22.59,11.76,33.36a72.27,72.27,0,0,0,8.58,11C188.88,76.47,189.1,76.74,189.3,77Z"/><path class="cls-2" d="M183.05,86.23A3.46,3.46,0,0,0,189,87.62l24.3-24.73,24.31-24.73a3.46,3.46,0,0,0-1.5-5.88L203.53,24.6,171,16.93a3.73,3.73,0,0,0-4.41,4.49l8.24,32.4Z"/><ellipse class="cls-4" cx="202.56" cy="412.12" rx="30.27" ry="59.64" transform="translate(-31.16 16.84) rotate(-4.42)"/><circle class="cls-4" cx="262.23" cy="402.12" r="88.65"/><path class="cls-2" d="M308.27,502.14l-33.39-5.68c-6.53-1.11-11.06-8-10.07-15.37L286.22,322c1-7.34,7.14-12.44,13.66-11.32l33.4,5.68c6.52,1.12,11.05,8,10.06,15.37L321.93,490.82C320.94,498.16,314.79,503.26,308.27,502.14Z"/><path class="cls-2" d="M324.8,523.14c16.6,5.71,23.22-5.68,11.91-20.49l-11.43-15-11.42-15c-11.31-14.81-32.07-21.95-37.36-12.84l-5.35,9.2-5.34,9.2c-5.29,9.11,8.84,27.63,25.45,33.34L308,517.37Z"/><path class="cls-2" d="M197.61,519.12c-17.56,2.88-22.58-8.88-9-21.16l13.68-12.4,13.67-12.41c13.54-12.28,35.48-15.88,39.49-6.47l4.06,9.49,4.06,9.5c4,9.41-12.91,24.76-30.47,27.64l-17.73,2.9Z"/><path class="cls-2" d="M247,484.17l-32.78,8.67c-6.41,1.69-12.95-2.53-14.53-9.37L165.34,335.12c-1.58-6.84,2.36-13.83,8.77-15.52l32.78-8.67c6.41-1.7,13,2.52,14.53,9.37l34.35,148.34C257.36,475.49,253.41,482.47,247,484.17Z"/></g></svg>