<svg xmlns="http://www.w3.org/2000/svg" viewBox="0 0 451.95 581.2"><defs><style>.cls-1{fill:#fff2ea;}.cls-2,.cls-5{fill:#faa967;}.cls-3,.cls-8{fill:none;}.cls-4{fill:#c9753c;}.cls-5{stroke:#faa967;stroke-width:0.77px;}.cls-5,.cls-8{stroke-miterlimit:10;}.cls-6{fill:#f2e5dc;}.cls-7{fill:#f26869;}.cls-8{stroke:#000;stroke-width:7px;}</style></defs><g id="Layer_1" data-name="Layer 1"><path class="cls-1" d="M294.38,23.06a35.75,35.75,0,0,0-1.46,4.57c-3.52,13.78-2.48,28.59-4.45,42.78a41,41,0,0,1-3.31,12.29c-2,4.16-5.09,7.61-8.13,11a5.79,5.79,0,0,1-2.68,2c-2.38.6-4.58-1.86-5.82-4.18a40.74,40.74,0,0,1-4.25-14.08,53.7,53.7,0,0,1,6.66-33.31,52.6,52.6,0,0,1,24.52-21.78"/><path class="cls-1" d="M19.58,150.77A34.85,34.85,0,0,1,24,152.6c12.82,6.15,23.49,16.47,35.62,24.09a41.19,41.19,0,0,0,11.54,5.37c4.49,1.14,9.11,1,13.66.85a5.83,5.83,0,0,0,3.26-.76c2-1.44,1.52-4.7.54-7.14a40.82,40.82,0,0,0-8-12.32A53.74,53.74,0,0,0,50.8,146.37a52.57,52.57,0,0,0-32.45,4.78"/><path class="cls-2" d="M102.8,116.23c-13.2.34-26.19-4.18-39.38-3.63-23.27,1-44.57,19.73-48.5,42.68a50.51,50.51,0,0,1,40.62,8.84c5,3.75,9.24,8.41,14.27,12.09s11.25,6.4,17.41,5.4"/><path class="cls-2" d="M213.11,63.71c8.74-9.9,13.64-22.75,22.54-32.5C251.37,14,279.42,9.77,299.53,21.52a50.46,50.46,0,0,0-19.36,36.79c-.34,6.23.5,12.48.08,18.71s-2.33,12.72-7.06,16.79"/><path class="cls-3" d="M55.23,330.16l0,.14h0S55.25,330.21,55.23,330.16Z"/><path class="cls-4" d="M167.11,466.63l-1.36-1.26a4.87,4.87,0,0,0-.65-4.61c-21.56-30.56-43.57-60.86-64.3-92C80.65,338.51,62.26,307,49.41,272.84c-2.15-5.7-10.39-2.42-9.44,3a5.56,5.56,0,0,0-.31,2C41.41,336.06,56.29,398,97.34,441.42c11.07,11.72,24.51,23.27,41.41,23.94a4.94,4.94,0,0,0,5-3.39c5.21,4,10.52,7.93,15.88,11.82a5.13,5.13,0,0,0,1.4.74l.21.19C166,479,171.83,470.91,167.11,466.63ZM55.23,330.16s0,.1.05.14h0Z"/><path class="cls-4" d="M408.63,538.59c14.32-1.81,19.88-17.24,10-27.77l-10-10.64-10-10.64c-9.86-10.53-27.76-8.26-32.21,4.08L362,506.08l-4.49,12.47c-4.45,12.34,7.88,25.5,22.2,23.69l14.46-1.82Z"/><path class="cls-4" d="M85.73,538.59c-14.31-1.81-19.88-17.24-10-27.77l10-10.64,10-10.64c9.87-10.53,27.76-8.26,32.21,4.08l4.5,12.46,4.49,12.47c4.45,12.34-7.88,25.5-22.2,23.69l-14.46-1.82Z"/><path class="cls-4" d="M370.61,408.53l.23-21c.91-61.48-47-121.45-93.28-122.13l-48.26-.71C183.06,264.05,138,328.53,137.08,390l-.25,16.82C108.5,412.92,87.11,438.07,87.11,468v7.77c0,34.39,28.34,62.54,63,62.54l68.89-1,65.69,1a66.26,66.26,0,0,0,7.2-.31l59.18.32c34.64,0,63-28.15,63-62.54V468C414,440.33,395.75,416.75,370.61,408.53Z"/><rect class="cls-5" x="133.1" y="224.76" width="237.61" height="312.99" rx="109.76"/><path class="cls-6" d="M280.1,340.11,325,241.4c8.45-18.58-9.73-38.13-28.87-31l-143.27,53c-19.15,7.09-20.22,33.75-1.71,42.35l98.36,45.69A23,23,0,0,0,280.1,340.11Z"/><path class="cls-2" d="M275.52,274l-42.37,19.74c-40.59,18.92-106.58-10.35-128.28-56.9L92.78,210.87c-21.7-46.55-6.24-100.11,34.36-119L184.81,65C225.4,46,276.37,68.64,298.06,115.19l12.1,25.95C331.85,187.69,316.11,255.05,275.52,274Z"/><path class="cls-1" d="M323.52,158.86c-13-11.45-33.28-5.2-46.2,4.11-30.15,14.19-45.55-9.41-89.41,15-24,8.43-29.33,37.57-52.83,45.16-48.18,9.76-38.71,53-5.89,76.49,22,26.82,46.84,10.71,87.73,5.33,30.77-4.24,58.37-20.23,80.5-41.6,5.26-2.45,42.73-32.54,40.57-43C336.53,198.71,340.62,176,323.52,158.86Z"/><path class="cls-4" d="M255.63,538.26h-9c-37.12,0-86.86-1.63-86.86-38.76l19.37-53.36a67.69,67.69,0,0,1,67.49-67.5h9a67.7,67.7,0,0,1,67.5,67.5l40.94,57.08C364.07,540.34,292.75,538.26,255.63,538.26Z"/><rect class="cls-2" x="133.14" y="386.28" width="57.77" height="167.01" rx="12"/><rect class="cls-2" x="313.34" y="386.28" width="57.77" height="167.01" rx="12"/><path class="cls-2" d="M145.27,566.94c-14.19,2.66-24.2-10.33-18-23.37l6.24-13.18,6.23-13.18c6.17-13,23.9-16.36,31.91-6l8.1,10.49,8.09,10.49c8,10.39.3,26.7-13.88,29.36l-14.33,2.68Z"/><path class="cls-2" d="M359.11,568.5c14.18,2.66,24.2-10.33,18-23.37L370.91,532l-6.23-13.18c-6.17-13-23.9-16.37-31.91-6l-8.1,10.49-8.09,10.49c-8,10.39-.31,26.7,13.88,29.36l14.32,2.68Z"/><circle cx="152.78" cy="184.45" r="5.86"/><circle cx="235.33" cy="145.97" r="5.86"/><ellipse cx="208.3" cy="194.36" rx="16.59" ry="11.16" transform="translate(-62.61 106.19) rotate(-24.99)"/><ellipse class="cls-7" cx="132.96" cy="251.11" rx="21.4" ry="8.46" transform="translate(-93.64 79.68) rotate(-24.99)"/><ellipse class="cls-7" cx="296.74" cy="174.78" rx="21.4" ry="8.46" transform="translate(-46.06 141.72) rotate(-24.99)"/><path class="cls-8" d="M176.66,232.54c5.11,12.3,19.72,17.91,32.67,12.53"/></g></svg>