<svg xmlns="http://www.w3.org/2000/svg" viewBox="0 0 447.61 551.71"><defs><style>.cls-1,.cls-8{fill:none;}.cls-2{fill:#c9753c;}.cls-3{fill:#fff2ea;}.cls-4,.cls-5{fill:#faa967;}.cls-5{stroke:#faa967;stroke-width:0.77px;}.cls-5,.cls-8{stroke-miterlimit:10;}.cls-6{fill:#f2e5dc;}.cls-7{fill:#f26869;}.cls-8{stroke:#000;stroke-width:7px;}</style></defs><g id="Layer_1" data-name="Layer 1"><path class="cls-1" d="M30.1,277.23v.14h0Z"/><path class="cls-2" d="M129.6,423c-.42-.45-.83-.92-1.24-1.38a4.86,4.86,0,0,0-.25-4.64c-18.8-32.33-38.07-64.44-56-97.26-17.43-31.92-33-65-42.8-100.07-1.64-5.86-10.14-3.32-9.66,2.17a5.49,5.49,0,0,0-.49,2c-3.35,58.15,6,121.11,43.13,168,10,12.64,22.38,25.33,39.16,27.48a4.94,4.94,0,0,0,5.28-3c4.84,4.45,9.79,8.82,14.78,13.17a5.14,5.14,0,0,0,1.33.85c.06.08.13.15.19.22C127.4,435.24,133.93,427.65,129.6,423ZM30.1,277.23l0,.15h0Z"/><path class="cls-2" d="M391.45,512.14c14.32-1.81,19.88-17.24,10-27.77l-10-10.64-10-10.64c-9.86-10.53-27.76-8.26-32.21,4.08l-4.5,12.46-4.49,12.47c-4.45,12.34,7.88,25.5,22.2,23.69L377,514Z"/><path class="cls-2" d="M68.55,512.14c-14.31-1.81-19.88-17.24-10-27.77l10-10.64,10-10.64c9.87-10.53,27.76-8.26,32.21,4.08l4.5,12.46,4.49,12.47c4.45,12.34-7.88,25.5-22.2,23.69L83,514Z"/><path class="cls-2" d="M353.43,382.08l.23-21c.91-61.48-47.05-121.46-93.28-122.13l-48.26-.71c-46.24-.67-91.31,63.81-92.22,125.29l-.25,16.82c-28.33,6.09-49.72,31.24-49.72,61.12v7.77c0,34.39,28.34,62.53,63,62.53l68.89-1,65.69,1a66.26,66.26,0,0,0,7.2-.31l59.18.31c34.64,0,63-28.14,63-62.53V441.5C396.85,413.88,378.57,390.3,353.43,382.08Z"/><path class="cls-3" d="M379.09,38.79a35.33,35.33,0,0,0-3.26,3.54c-9,11-14.33,24.86-22.11,36.88A41.05,41.05,0,0,1,345.54,89c-3.59,2.92-7.83,4.75-12,6.53a5.81,5.81,0,0,1-3.28.69c-2.42-.46-3.37-3.62-3.51-6.24a40.66,40.66,0,0,1,2.1-14.56A53.7,53.7,0,0,1,348.93,48a52.62,52.62,0,0,1,31.43-9.38"/><path class="cls-3" d="M76.06,38.46A36.44,36.44,0,0,1,79.32,42c9,11,14.32,24.86,22.1,36.89a41.48,41.48,0,0,0,8.19,9.74c3.58,2.93,7.83,4.75,12,6.54a5.9,5.9,0,0,0,3.28.69c2.41-.46,3.36-3.62,3.51-6.24A40.93,40.93,0,0,0,126.32,75a53.68,53.68,0,0,0-20.1-27.37,52.65,52.65,0,0,0-31.44-9.39"/><path class="cls-4" d="M258.78,256.06H212c-44.78,0-92.23-54.41-92.23-105.77V121.66c0-51.36,36.64-93.38,81.43-93.38h63.62c44.79,0,81.43,42,81.43,93.38v28.63C346.29,201.65,303.57,256.06,258.78,256.06Z"/><rect class="cls-5" x="115.92" y="198.31" width="237.61" height="312.99" rx="109.76"/><path class="cls-6" d="M246.17,316.65,332,241.4c17.07-15,6.49-43.09-16.21-43.09H144.08c-22.7,0-33.28,28.13-16.21,43.09l85.88,75.25A24.6,24.6,0,0,0,246.17,316.65Z"/><path class="cls-3" d="M350.92,172c-7-15.9-28-18.78-43.61-15.79C274,156.32,270,128.43,219.93,132c-25.35-2.51-42.45,21.67-67,18.62-47.81-11.51-57.5,31.72-37.66,66.84,8.58,33.59,37.93,29.49,77.26,41.9,29.69,9.15,61.45,6.32,90.54-3.71,5.81,0,52.48-11.44,54.92-21.8C345.88,213.61,359.16,194.79,350.92,172Z"/><path class="cls-2" d="M238.45,511.8h-9c-37.12,0-86.86-1.62-86.86-38.75L162,419.69a67.69,67.69,0,0,1,67.49-67.5h9a67.7,67.7,0,0,1,67.5,67.5l40.94,57.08C346.89,513.89,275.57,511.8,238.45,511.8Z"/><rect class="cls-4" x="115.97" y="359.83" width="57.77" height="167.01" rx="12"/><rect class="cls-4" x="296.16" y="359.83" width="57.77" height="167.01" rx="12"/><path class="cls-4" d="M128.09,540.49c-14.19,2.66-24.2-10.33-18-23.37l6.24-13.18,6.23-13.18c6.17-13,23.9-16.37,31.91-6l8.1,10.49,8.09,10.49c8,10.39.3,26.7-13.88,29.36l-14.33,2.68Z"/><path class="cls-4" d="M341.93,542.05c14.18,2.66,24.2-10.33,18-23.37l-6.23-13.18-6.23-13.18c-6.17-13-23.9-16.37-31.91-6l-8.1,10.49-8.09,10.49c-8,10.39-.31,26.7,13.88,29.36l14.32,2.68Z"/></g><g id="Layer_2" data-name="Layer 2"><circle cx="183.43" cy="117.64" r="5.86"/><circle cx="274.52" cy="117.64" r="5.86"/><ellipse cx="229.58" cy="150.07" rx="16.59" ry="11.16"/><path class="cls-4" d="M166.07,42.31c-12.1-5.27-22-14.85-34.15-19.92-21.51-8.94-48.73-.95-62,18.2A50.51,50.51,0,0,1,103,65.75c2.93,5.51,4.81,11.53,7.82,17s7.49,10.55,13.5,12.24"/><path class="cls-4" d="M123.63,94c8.5-2.41,13-11.31,18.09-18.57C148.4,65.8,157.39,58,164.19,48.46c1.06-1.49,2.11-3.21,1.84-5"/><path class="cls-4" d="M288.25,41.31c12.11-5.28,22-14.86,34.16-19.93,21.5-8.94,48.73-.95,62,18.2a50.51,50.51,0,0,0-33.09,25.16c-2.93,5.51-4.81,11.53-7.82,17S336,92.28,330,94"/><ellipse class="cls-7" cx="137.31" cy="169.69" rx="21.4" ry="8.46"/><ellipse class="cls-7" cx="318.01" cy="169.69" rx="21.4" ry="8.46"/><path class="cls-8" d="M192.79,178.14c0,13.33,11.35,24.11,25.38,24.11"/></g></svg>